<?xml version="1.0" standalone="no"?>
<!DOCTYPE svg PUBLIC "-//W3C//DTD SVG 20010904//EN"
 "http://www.w3.org/TR/2001/REC-SVG-20010904/DTD/svg10.dtd">
<svg version="1.0" xmlns="http://www.w3.org/2000/svg"
 width="600.000000pt" height="600.000000pt" viewBox="0 0 600.000000 600.000000"
 preserveAspectRatio="xMidYMid meet">
<metadata>
Created by potrace 1.10, written by Peter Selinger 2001-2011
</metadata>
<g transform="translate(0.000000,600.000000) scale(0.100000,-0.100000)"
fill="#000000" stroke="none">
<path d="M844 3332 c-22 -17 -104 -134 -104 -147 0 -9 -93 -164 -138 -230 -19
-27 -38 -59 -43 -70 -10 -23 -27 -50 -52 -84 -10 -15 -17 -42 -17 -71 0 -42 4
-50 34 -74 l35 -26 341 0 341 0 34 32 c43 39 47 87 12 140 -22 31 -148 238
-191 311 -116 201 -147 237 -203 237 -15 0 -38 -8 -49 -18z m81 -50 c11 -7 81
-112 129 -192 15 -25 31 -52 36 -60 49 -78 100 -170 100 -179 0 -6 4 -11 8
-11 5 0 21 -24 36 -54 22 -44 26 -58 16 -75 -11 -21 -17 -21 -348 -21 -185 0
-342 4 -348 8 -21 14 -21 38 0 74 11 20 40 67 63 105 22 37 56 95 74 128 18
33 36 62 41 63 4 2 8 8 8 12 0 5 14 29 30 53 17 25 30 48 30 51 0 7 34 58 59
89 14 17 48 22 66 9z"/>
<path d="M798 3095 c-4 -4 -4 -13 -1 -21 4 -10 -3 -14 -20 -14 -35 0 -45 -20
-19 -40 20 -17 20 -17 1 -33 -23 -21 -24 -31 -2 -52 16 -16 16 -18 0 -27 -23
-12 -21 -35 3 -48 11 -6 20 -17 20 -25 0 -7 9 -17 21 -20 12 -4 30 -16 40 -26
27 -27 94 -26 109 1 6 11 20 20 31 20 11 0 23 10 28 24 5 13 16 26 25 29 12 5
14 18 9 64 -3 32 -10 63 -15 70 -5 7 -5 14 2 18 17 11 11 37 -14 60 -19 18
-31 21 -62 16 -26 -4 -40 -12 -42 -24 -4 -17 0 -19 52 -21 28 -1 30 -4 33 -46
1 -25 5 -55 8 -67 3 -15 -6 -33 -33 -63 -52 -59 -64 -63 -106 -43 -50 26 -69
64 -68 139 0 35 3 68 7 74 3 5 24 10 46 10 32 0 39 3 39 20 0 11 -6 20 -14 20
-7 0 -26 3 -42 6 -16 3 -32 2 -36 -1z"/>
<path d="M854 3013 c-13 -5 11 -63 26 -63 5 0 10 -10 12 -22 2 -13 10 -23 18
-23 10 0 14 8 12 22 -2 12 4 33 13 47 9 14 14 29 11 34 -6 10 -72 13 -92 5z"/>
<path d="M834 2936 c-6 -17 2 -36 17 -36 12 0 12 37 -1 45 -6 3 -13 -1 -16 -9z"/>
<path d="M953 2935 c-3 -9 -3 -18 0 -21 9 -9 27 6 27 22 0 19 -19 18 -27 -1z"/>
<path d="M887 2864 c-13 -13 -7 -24 14 -24 11 0 19 5 17 12 -5 14 -22 21 -31
12z"/>
<path d="M1495 3337 c-3 -6 -4 -167 -3 -355 l3 -343 229 -1 c182 0 230 3 237
13 12 20 11 25 -8 45 -15 15 -38 16 -203 13 l-185 -4 -1 310 c-1 171 -2 316
-3 323 -1 16 -60 16 -66 -1z"/>
<path d="M4630 3341 c-14 -4 -39 -11 -56 -15 -33 -8 -101 -65 -126 -106 -42
-70 -48 -117 -46 -356 l3 -229 27 -3 c42 -5 57 26 46 95 -5 32 -8 70 -6 86 l3
30 218 1 c138 1 217 -3 218 -9 1 -5 2 -53 3 -105 1 -91 2 -95 24 -98 50 -7 52
3 48 242 -3 122 -8 239 -12 261 -14 75 -74 149 -151 185 -45 21 -154 33 -193
21z m135 -72 c52 -13 119 -74 133 -121 12 -39 23 -238 14 -238 -13 -1 -417 -1
-429 0 -17 0 -17 125 -1 204 24 124 145 190 283 155z"/>
<path d="M5134 3325 c-18 -27 -17 -28 4 -45 18 -15 28 -16 66 -7 81 18 77 33
74 -285 l-3 -283 -67 3 c-60 2 -68 0 -79 -19 -9 -17 -8 -24 4 -36 24 -24 347
-23 362 1 7 11 6 21 -1 34 -9 13 -25 17 -75 17 l-64 0 -3 283 c-3 319 -7 303
75 285 35 -8 47 -8 59 4 31 32 5 81 -37 68 -26 -8 -219 -8 -264 1 -29 5 -36 2
-51 -21z"/>
<path d="M2152 3149 c-148 -69 -199 -278 -100 -408 45 -59 152 -111 229 -111
71 0 203 65 197 97 -5 26 -35 40 -55 25 -103 -73 -228 -67 -304 15 -21 24 -39
47 -39 53 0 13 2 13 110 34 47 10 117 24 155 32 39 8 83 14 98 14 70 0 82 35
44 123 -56 125 -211 184 -335 126z m176 -54 c44 -19 79 -50 99 -89 14 -27 14
-31 -2 -42 -9 -7 -49 -18 -88 -24 -40 -6 -94 -17 -122 -25 -27 -7 -71 -17 -97
-20 -59 -9 -65 2 -42 71 37 113 150 171 252 129z"/>
<path d="M2750 3144 c-165 -88 -199 -304 -70 -433 49 -49 125 -81 191 -81 45
1 108 30 148 69 17 17 36 31 41 31 16 0 21 -19 10 -40 -16 -30 4 -62 38 -58
l26 3 -1 265 0 265 -38 3 -37 3 6 -45 c9 -55 -6 -61 -45 -20 -63 68 -182 85
-269 38z m221 -66 c50 -28 78 -72 89 -140 11 -69 -3 -125 -43 -170 -78 -86
-202 -92 -285 -14 -63 60 -76 207 -24 271 23 28 83 72 107 78 37 10 116 -2
156 -25z"/>
<path d="M3330 3163 c-5 -90 -1 -513 4 -522 10 -15 53 -14 62 1 5 7 8 90 9
183 l0 171 33 41 c28 36 41 44 95 56 59 13 62 15 62 43 0 25 -4 29 -32 32 -38
4 -88 -20 -125 -59 -39 -42 -51 -38 -42 16 l6 45 -36 0 c-20 0 -36 -3 -36 -7z"/>
<path d="M3727 3163 c-3 -5 -7 -123 -8 -262 -3 -277 -2 -282 53 -268 l25 7 -1
177 c-1 174 0 179 24 211 75 100 226 106 286 11 22 -36 24 -47 26 -221 l3
-183 27 -3 c18 -2 29 3 35 15 5 10 6 104 3 209 l-5 190 -33 41 c-18 23 -52 51
-75 62 -83 40 -207 20 -267 -43 -33 -36 -39 -33 -37 17 2 39 0 42 -25 45 -14
2 -28 -1 -31 -5z"/>
</g>
</svg>
